<svg xmlns="http://www.w3.org/2000/svg" viewBox="0 0 1366 900" font-family="Inter, system-ui, -apple-system, sans-serif">
  <defs>
    <linearGradient id="kpiBlue" x1="0" x2="1" y1="0" y2="1">
      <stop offset="0" stop-color="#2E86AB"/><stop offset="1" stop-color="#1F618D"/>
    </linearGradient>
    <linearGradient id="kpiMagenta" x1="0" x2="1" y1="0" y2="1">
      <stop offset="0" stop-color="#A23B72"/><stop offset="1" stop-color="#7D2A56"/>
    </linearGradient>
    <linearGradient id="kpiOrange" x1="0" x2="1" y1="0" y2="1">
      <stop offset="0" stop-color="#F18F01"/><stop offset="1" stop-color="#C57701"/>
    </linearGradient>
    <linearGradient id="kpiGreen" x1="0" x2="1" y1="0" y2="1">
      <stop offset="0" stop-color="#06A77D"/><stop offset="1" stop-color="#048461"/>
    </linearGradient>
    <filter id="cardShadow"><feDropShadow dx="0" dy="2" stdDeviation="6" flood-opacity="0.08"/></filter>
  </defs>

  <!-- BACKGROUND -->
  <rect width="1366" height="900" fill="#F5F5F5"/>

  <!-- ─── TITLE BAR ─── -->
  <rect x="0" y="0" width="1366" height="80" fill="#FFFFFF" stroke="#E5E7EB" stroke-width="1"/>
  <text x="32" y="38" font-size="22" font-weight="800" fill="#1F2937">🏥 PILOTAGE DE L'ACTIVITÉ HOSPITALIÈRE</text>
  <text x="32" y="62" font-size="13" font-style="italic" fill="#6B7280">Vue Globale · Direction Générale · Année 2024</text>
  <text x="1334" y="42" font-size="11" font-weight="600" fill="#9CA3AF" text-anchor="end">DASHBOARD 1 / 3</text>
  <text x="1334" y="60" font-size="10" fill="#9CA3AF" text-anchor="end">Martine Ouedraogo · Master 1 Lyon 2</text>

  <!-- ─── FILTER ROW ─── -->
  <rect x="0" y="80" width="1366" height="40" fill="#FAFAFA" stroke="#E5E7EB" stroke-width="1"/>
  <text x="32" y="105" font-size="11" font-weight="700" fill="#6B7280">FILTRES :</text>
  <rect x="100" y="90" width="120" height="22" rx="4" fill="#FFFFFF" stroke="#E5E7EB"/>
  <text x="110" y="106" font-size="11" fill="#374151">Année : 2024 ▾</text>
  <rect x="232" y="90" width="160" height="22" rx="4" fill="#FFFFFF" stroke="#E5E7EB"/>
  <text x="242" y="106" font-size="11" fill="#374151">Service : Tous ▾</text>
  <rect x="404" y="90" width="160" height="22" rx="4" fill="#FFFFFF" stroke="#E5E7EB"/>
  <text x="414" y="106" font-size="11" fill="#374151">Spécialité : Toutes ▾</text>

  <!-- ─── KPI ROW (4 cards) ─── -->
  <!-- KPI 1 - Consultations -->
  <rect x="20" y="140" width="320" height="130" rx="12" fill="#FFFFFF" filter="url(#cardShadow)"/>
  <rect x="20" y="140" width="4" height="130" rx="2" fill="url(#kpiBlue)"/>
  <text x="40" y="170" font-size="11" font-weight="700" fill="#9CA3AF" letter-spacing="1.5">📊 CONSULTATIONS</text>
  <text x="40" y="220" font-size="44" font-weight="800" fill="#2E86AB">10 000</text>
  <text x="40" y="245" font-size="11" fill="#6B7280">Total cumulé</text>
  <text x="320" y="245" font-size="11" font-weight="700" fill="#06A77D" text-anchor="end">↑ +12,3 %</text>

  <!-- KPI 2 - Coût Total -->
  <rect x="356" y="140" width="320" height="130" rx="12" fill="#FFFFFF" filter="url(#cardShadow)"/>
  <rect x="356" y="140" width="4" height="130" rx="2" fill="url(#kpiMagenta)"/>
  <text x="376" y="170" font-size="11" font-weight="700" fill="#9CA3AF" letter-spacing="1.5">💰 COÛT TOTAL</text>
  <text x="376" y="220" font-size="44" font-weight="800" fill="#A23B72">2,71 M€</text>
  <text x="376" y="245" font-size="11" fill="#6B7280">Cumul annuel</text>
  <text x="656" y="245" font-size="11" font-weight="700" fill="#06A77D" text-anchor="end">↑ +8,1 %</text>

  <!-- KPI 3 - Durée Moyenne -->
  <rect x="692" y="140" width="320" height="130" rx="12" fill="#FFFFFF" filter="url(#cardShadow)"/>
  <rect x="692" y="140" width="4" height="130" rx="2" fill="url(#kpiOrange)"/>
  <text x="712" y="170" font-size="11" font-weight="700" fill="#9CA3AF" letter-spacing="1.5">⏱️ DURÉE MOYENNE</text>
  <text x="712" y="220" font-size="44" font-weight="800" fill="#F18F01">65 min</text>
  <text x="712" y="245" font-size="11" fill="#6B7280">Par consultation</text>
  <text x="992" y="245" font-size="11" font-weight="700" fill="#9CA3AF" text-anchor="end">→ Stable</text>

  <!-- KPI 4 - Patients -->
  <rect x="1028" y="140" width="320" height="130" rx="12" fill="#FFFFFF" filter="url(#cardShadow)"/>
  <rect x="1028" y="140" width="4" height="130" rx="2" fill="url(#kpiGreen)"/>
  <text x="1048" y="170" font-size="11" font-weight="700" fill="#9CA3AF" letter-spacing="1.5">👥 PATIENTS</text>
  <text x="1048" y="220" font-size="44" font-weight="800" fill="#06A77D">186</text>
  <text x="1048" y="245" font-size="11" fill="#6B7280">Patients uniques</text>
  <text x="1328" y="245" font-size="11" font-weight="700" fill="#06A77D" text-anchor="end">↑ +5,2 %</text>

  <!-- ─── EVOLUTION CHART (line) ─── -->
  <rect x="20" y="290" width="1328" height="280" rx="12" fill="#FFFFFF" filter="url(#cardShadow)"/>
  <text x="40" y="320" font-size="14" font-weight="700" fill="#1F2937">📈 Évolution mensuelle du coût des consultations</text>
  <text x="40" y="340" font-size="11" fill="#9CA3AF">12 derniers mois — granularité mensuelle</text>

  <!-- Y-axis lines -->
  <line x1="80" y1="380" x2="1330" y2="380" stroke="#F3F4F6" stroke-width="1"/>
  <line x1="80" y1="430" x2="1330" y2="430" stroke="#F3F4F6" stroke-width="1"/>
  <line x1="80" y1="480" x2="1330" y2="480" stroke="#F3F4F6" stroke-width="1"/>
  <line x1="80" y1="530" x2="1330" y2="530" stroke="#E5E7EB" stroke-width="1"/>
  <text x="70" y="384" font-size="9" fill="#9CA3AF" text-anchor="end">300K€</text>
  <text x="70" y="434" font-size="9" fill="#9CA3AF" text-anchor="end">200K€</text>
  <text x="70" y="484" font-size="9" fill="#9CA3AF" text-anchor="end">100K€</text>
  <text x="70" y="534" font-size="9" fill="#9CA3AF" text-anchor="end">0€</text>

  <!-- Line path -->
  <path d="M 110 470 L 215 445 L 320 458 L 425 420 L 530 432 L 635 405 L 740 390 L 845 410 L 950 395 L 1055 380 L 1160 410 L 1265 395"
        fill="none" stroke="#2E86AB" stroke-width="3" stroke-linecap="round" stroke-linejoin="round"/>
  <!-- Area under -->
  <path d="M 110 470 L 215 445 L 320 458 L 425 420 L 530 432 L 635 405 L 740 390 L 845 410 L 950 395 L 1055 380 L 1160 410 L 1265 395 L 1265 530 L 110 530 Z"
        fill="#2E86AB" fill-opacity="0.08"/>
  <!-- Points -->
  <g fill="#2E86AB">
    <circle cx="110" cy="470" r="4"/><circle cx="215" cy="445" r="4"/><circle cx="320" cy="458" r="4"/>
    <circle cx="425" cy="420" r="4"/><circle cx="530" cy="432" r="4"/><circle cx="635" cy="405" r="4"/>
    <circle cx="740" cy="390" r="4"/><circle cx="845" cy="410" r="4"/><circle cx="950" cy="395" r="4"/>
    <circle cx="1055" cy="380" r="4"/><circle cx="1160" cy="410" r="4"/><circle cx="1265" cy="395" r="4"/>
  </g>
  <!-- X labels -->
  <g font-size="9" fill="#9CA3AF" text-anchor="middle">
    <text x="110" y="550">Jan</text><text x="215" y="550">Fév</text><text x="320" y="550">Mar</text>
    <text x="425" y="550">Avr</text><text x="530" y="550">Mai</text><text x="635" y="550">Juin</text>
    <text x="740" y="550">Juil</text><text x="845" y="550">Août</text><text x="950" y="550">Sep</text>
    <text x="1055" y="550">Oct</text><text x="1160" y="550">Nov</text><text x="1265" y="550">Déc</text>
  </g>

  <!-- ─── BOTTOM ROW : 2 charts ─── -->
  <!-- Top 5 Services -->
  <rect x="20" y="590" width="652" height="280" rx="12" fill="#FFFFFF" filter="url(#cardShadow)"/>
  <text x="40" y="620" font-size="14" font-weight="700" fill="#1F2937">🏆 Top 5 Services par activité</text>
  <text x="40" y="640" font-size="11" fill="#9CA3AF">Nombre de consultations · classement décroissant</text>

  <!-- Bars -->
  <g font-size="10" fill="#374151">
    <text x="40" y="670">Cardiologie</text>
    <rect x="180" y="660" width="430" height="14" rx="2" fill="#2E86AB"/>
    <text x="620" y="670" font-weight="700" fill="#1F2937">2 480</text>

    <text x="40" y="700">Dermatologie</text>
    <rect x="180" y="690" width="365" height="14" rx="2" fill="#2E86AB" fill-opacity="0.85"/>
    <text x="555" y="700" font-weight="700" fill="#1F2937">2 105</text>

    <text x="40" y="730">Généraliste</text>
    <rect x="180" y="720" width="305" height="14" rx="2" fill="#2E86AB" fill-opacity="0.7"/>
    <text x="495" y="730" font-weight="700" fill="#1F2937">1 760</text>

    <text x="40" y="760">Radiologie</text>
    <rect x="180" y="750" width="245" height="14" rx="2" fill="#2E86AB" fill-opacity="0.55"/>
    <text x="435" y="760" font-weight="700" fill="#1F2937">1 410</text>

    <text x="40" y="790">Pédiatrie</text>
    <rect x="180" y="780" width="195" height="14" rx="2" fill="#2E86AB" fill-opacity="0.4"/>
    <text x="385" y="790" font-weight="700" fill="#1F2937">1 125</text>
  </g>

  <!-- Patients par tranche d'âge -->
  <rect x="696" y="590" width="652" height="280" rx="12" fill="#FFFFFF" filter="url(#cardShadow)"/>
  <text x="716" y="620" font-size="14" font-weight="700" fill="#1F2937">👥 Patients par Tranche d'âge</text>
  <text x="716" y="640" font-size="11" fill="#9CA3AF">Distribution démographique</text>

  <g>
    <text x="716" y="670" font-size="10" fill="#374151">0-17 ans</text>
    <rect x="820" y="660" width="190" height="14" rx="2" fill="#A23B72" fill-opacity="0.4"/>
    <text x="1020" y="670" font-size="10" font-weight="700" fill="#1F2937">28 (15%)</text>

    <text x="716" y="700" font-size="10" fill="#374151">18-35 ans</text>
    <rect x="820" y="690" width="320" height="14" rx="2" fill="#A23B72" fill-opacity="0.65"/>
    <text x="1150" y="700" font-size="10" font-weight="700" fill="#1F2937">52 (28%)</text>

    <text x="716" y="730" font-size="10" fill="#374151">36-50 ans</text>
    <rect x="820" y="720" width="380" height="14" rx="2" fill="#A23B72" fill-opacity="0.85"/>
    <text x="1210" y="730" font-size="10" font-weight="700" fill="#1F2937">61 (33%)</text>

    <text x="716" y="760" font-size="10" fill="#374151">51-65 ans</text>
    <rect x="820" y="750" width="200" height="14" rx="2" fill="#A23B72" fill-opacity="0.55"/>
    <text x="1030" y="760" font-size="10" font-weight="700" fill="#1F2937">31 (17%)</text>

    <text x="716" y="790" font-size="10" fill="#374151">65+ ans</text>
    <rect x="820" y="780" width="90" height="14" rx="2" fill="#A23B72" fill-opacity="0.3"/>
    <text x="920" y="790" font-size="10" font-weight="700" fill="#1F2937">14 (7%)</text>
  </g>

  <!-- ─── FOOTER ─── -->
  <text x="1334" y="892" font-size="9" font-style="italic" fill="#9CA3AF" text-anchor="end">
    Hospital BI Warehouse · Vue Globale · Université Lumière Lyon 2 · 2026
  </text>
</svg>
